<svg width="120" height="40" viewBox="0 0 120 40" fill="none" xmlns="http://www.w3.org/2000/svg">
<path d="M13.7073 8.59082V17.4738L13.5877 17.295C13.0024 16.4213 11.4418 14.956 7.55593 14.956C2.54118 14.956 0 17.9295 0 23.7961C0 26.4273 0.538415 28.5121 1.59963 29.9875C2.86372 31.75 4.8795 32.6338 7.58195 32.6338C10.183 32.6338 13.3302 31.9313 14.3784 29.9598L14.4486 29.8264L15.333 32.3971H17.2473V8.59082H13.7073ZM8.64056 29.7811C4.28127 29.7811 3.68044 26.9057 3.68044 23.7961C3.68044 20.2409 4.53096 17.8767 8.67697 17.8767C12.8802 17.8767 13.7411 20.2409 13.7411 23.7961C13.7385 27.3891 12.875 29.7811 8.64056 29.7811Z" fill="white"/>
<path d="M22.7693 8.15039C20.8523 8.15039 20.072 8.76978 20.072 10.288C20.072 11.8063 20.8523 12.393 22.7693 12.393C24.6108 12.393 25.3703 11.7837 25.3703 10.288C25.3703 8.79244 24.6108 8.15039 22.7693 8.15039ZM20.9486 15.2004V32.3973H24.525V15.1928L20.9486 15.2004Z" fill="white"/>
<path d="M20.072 10.288C20.072 8.77733 20.8523 8.15039 22.7693 8.15039C24.6108 8.15039 25.3703 8.76978 25.3703 10.288C25.3703 11.8063 24.6186 12.393 22.7693 12.393C20.8523 12.393 20.072 11.7837 20.072 10.288Z" fill="white"/>
<path d="M35.8133 14.9561C30.4656 14.9561 28.0675 16.8797 28.0441 21.1928L31.5502 21.16C31.5711 18.7077 32.8221 17.7055 35.8471 17.7055C39.3039 17.7055 40.4509 18.6825 40.5627 21.7341V21.7945L34.8743 22.3258C29.6255 22.8495 27.4849 24.3124 27.4849 27.3766C27.4849 30.6649 30.0495 32.6263 34.3437 32.6263C37.9565 32.6263 40.4483 31.2138 41.317 29.8139L41.3951 29.6905L42.191 32.3972H44.1053V22.6103C44.1053 17.6451 42.784 14.9561 35.8133 14.9561ZM40.5627 25.0124C40.5627 28.2226 38.742 29.9171 35.2879 29.9171C32.6531 29.9171 31.2017 29.0057 31.2017 27.3489C31.2017 25.9364 32.3436 25.2868 35.4205 24.9519L40.5627 24.4005V25.0124Z" fill="white"/>
<path d="M55.4171 22.366L55.157 22.3157C52.2959 21.7643 50.3997 21.3992 50.3997 19.8683C50.3997 18.3375 51.7002 17.6375 54.4859 17.6375C57.4615 17.6375 58.8634 18.6824 59.0247 21.024H62.393C62.4125 19.9915 62.1743 18.9697 61.6985 18.0454C59.5565 17.3399 57.5429 16.3117 55.7318 14.9988C55.3651 14.9711 54.9853 14.9585 54.59 14.9585C49.5102 14.9585 46.8233 16.7613 46.8233 20.1755C46.8233 23.3455 50.2723 24.2443 54.1062 24.9594C57.0063 25.5033 59.3082 25.9313 59.3082 27.6283C59.3082 29.0031 57.6071 29.8944 54.9749 29.8944C51.7132 29.8944 50.033 28.7085 50.0148 26.3694H46.4748C46.5008 30.5893 49.3047 32.6414 55.0451 32.6414C59.727 32.6414 62.8482 30.5591 62.8482 27.4596C62.8482 23.7685 59.4044 23.1189 55.4171 22.366Z" fill="white"/>
<path d="M55.4171 22.366L55.157 22.3157C52.2959 21.7643 50.3997 21.3992 50.3997 19.8683C50.3997 18.3375 51.7002 17.6375 54.4859 17.6375C57.4615 17.6375 58.8634 18.6824 59.0247 21.024H62.393C62.4125 19.9915 62.1743 18.9697 61.6985 18.0454C59.5565 17.3399 57.5429 16.3117 55.7318 14.9988C55.3651 14.9711 54.9853 14.9585 54.59 14.9585C49.5102 14.9585 46.8233 16.7613 46.8233 20.1755C46.8233 23.3455 50.2723 24.2443 54.1062 24.9594C57.0063 25.5033 59.3082 25.9313 59.3082 27.6283C59.3082 29.0031 57.6071 29.8944 54.9749 29.8944C51.7132 29.8944 50.033 28.7085 50.0148 26.3694H46.4748C46.5008 30.5893 49.3047 32.6414 55.0451 32.6414C59.727 32.6414 62.8482 30.5591 62.8482 27.4596C62.8482 23.7685 59.4044 23.1189 55.4171 22.366Z" fill="white"/>
<path d="M83.94 8.51287C78.5247 2.82504 73.562 0.168696 67.9282 0H67.858C67.6915 0 67.525 0 67.3586 0H67.2025C60.8456 0.0478392 55.0064 4.51955 54.7619 4.71342C54.6001 4.83896 54.4965 5.02157 54.4738 5.22107C54.4511 5.42057 54.5112 5.62062 54.6409 5.77722C54.7706 5.93381 54.9592 6.03412 55.1653 6.05608C55.3714 6.07804 55.5781 6.01984 55.7398 5.8943C57.1702 4.84791 58.7107 3.95077 60.3358 3.21782C58.9285 4.84348 58.1629 6.8999 58.1752 9.02089C58.1876 11.1419 58.9772 13.1898 60.4035 14.7999C57.8233 13.5788 55.2743 11.6426 52.6004 8.91824L54.1454 7.40753C54.2175 7.3366 54.2744 7.25263 54.313 7.16041C54.3515 7.06818 54.3709 6.96952 54.3701 6.87003C54.3693 6.77055 54.3482 6.67219 54.3081 6.5806C54.2679 6.489 54.2096 6.40595 54.1363 6.33618C54.0631 6.26641 53.9763 6.2113 53.8811 6.17399C53.7858 6.13667 53.6838 6.11789 53.5811 6.1187C53.4783 6.11952 53.3767 6.13993 53.2821 6.17875C53.1875 6.21758 53.1017 6.27407 53.0296 6.34499L50.9488 8.38194C50.808 8.52014 50.7275 8.70552 50.7241 8.89961C50.7208 9.0937 50.7947 9.2816 50.9306 9.42433C53.4718 12.0983 55.9193 14.1 58.3799 15.4898C58.9878 15.834 59.6138 16.1475 60.2552 16.429C61.9634 17.1832 63.7872 17.6629 65.6549 17.8491C66.0815 17.8944 66.5106 17.9246 66.9554 17.9372H67.023C67.1635 17.9372 67.3013 17.9372 67.4392 17.9372H67.6785C68.2002 17.9321 68.7211 17.8993 69.2391 17.839C74.9613 17.1768 79.8876 13.4025 80.1139 13.2263C80.1943 13.1641 80.2611 13.0872 80.3107 13C80.3602 12.9127 80.3914 12.8168 80.4025 12.7178C80.4137 12.6189 80.4045 12.5187 80.3755 12.4232C80.3465 12.3277 80.2982 12.2387 80.2336 12.1612C80.1694 12.0838 80.0901 12.0194 80.0002 11.9717C79.9102 11.9239 79.8115 11.8939 79.7095 11.8831C79.6076 11.8723 79.5045 11.8811 79.4061 11.909C79.3076 11.9368 79.2158 11.9832 79.1359 12.0454C77.7032 13.0897 76.1621 13.9867 74.5374 14.7219C75.9454 13.0968 76.712 11.0407 76.7005 8.91975C76.6891 6.79875 75.9004 4.75052 74.4749 3.13976C77.0499 4.36344 79.5989 6.29464 82.278 9.02147L80.7356 10.5322C80.6628 10.6024 80.6051 10.6857 80.5657 10.7776C80.5263 10.8694 80.5061 10.9678 80.5061 11.0672C80.5061 11.1666 80.5263 11.2651 80.5657 11.3569C80.6051 11.4487 80.6628 11.5321 80.7356 11.6023C80.8835 11.7408 81.0812 11.8184 81.287 11.8188C81.3902 11.8184 81.4923 11.7982 81.5874 11.7593C81.6825 11.7204 81.7687 11.6636 81.841 11.5922L83.9218 9.55526C84.0626 9.41706 84.1431 9.23168 84.1465 9.03759C84.1498 8.8435 84.0759 8.6556 83.94 8.51287ZM75.1512 8.96356C75.1486 10.9292 74.3457 12.8147 72.9167 14.2112C71.4877 15.6077 69.5477 16.4028 67.5172 16.424H67.4418H67.1297H67.0594C65.0651 16.3152 63.1923 15.4614 61.8354 14.0423C60.4785 12.6233 59.7436 10.7499 59.7854 8.81665C59.8272 6.88345 60.6425 5.04142 62.0595 3.6786C63.4765 2.31579 65.3847 1.53858 67.382 1.51071H67.4548C67.5614 1.51071 67.6655 1.51071 67.7669 1.51071H67.8398C69.812 1.61184 71.6692 2.44086 73.0292 3.82719C74.3892 5.21351 75.1486 7.05171 75.1512 8.96356Z" fill="#66A5F4"/>
<path d="M67.6809 18.9442H67.4416C67.27 18.9442 67.1165 18.9442 66.9761 18.9442H66.924C66.5027 18.9442 66.0839 18.9039 65.6703 18.8637V32.3971H69.2493V18.8511C68.7286 18.9088 68.2051 18.9398 67.6809 18.9442Z" fill="white"/>
<path d="M67.6809 18.9442H67.4416C67.27 18.9442 67.1165 18.9442 66.9761 18.9442H66.924C66.5027 18.9442 66.0839 18.9039 65.6703 18.8637V32.3971H69.2493V18.8511C68.7286 18.9088 68.2051 18.9398 67.6809 18.9442Z" fill="white"/>
<path d="M81.7001 29.9624L81.0889 29.8818L80.5297 29.8113C77.177 29.3757 75.6424 29.1894 75.6424 28.3686C75.6424 27.4924 76.7842 27.4596 80.5661 27.3614C86.0126 27.2179 88.3353 25.5259 88.3353 21.7038C88.3353 19.6341 87.7137 18.3374 86.3768 17.6299L86.2389 17.5569L88.8607 16.8167V15.2002H81.0577C80.5141 15.2002 79.7572 15.2002 78.9379 15.2707C77.1426 16.3931 75.2156 17.3043 73.1974 17.9849C72.6065 18.9547 72.3133 20.0674 72.3521 21.1927C72.3521 23.3883 73.1974 24.8335 75.0103 25.7424L75.169 25.8205L74.9947 25.8583C72.8697 26.3266 72.0036 27.1172 72.0036 28.5725C72.0036 31.2263 74.2977 31.6393 80.9329 32.4374C84.3142 32.8529 85.6771 33.1777 85.6771 34.7337C85.6771 36.5491 82.9408 36.9293 80.6467 36.9293C76.2016 36.9293 75.684 35.5394 75.5149 33.714H71.7201C71.7357 36.675 72.7969 39.6813 80.3294 39.6813C83.7263 39.6813 89.433 39.0166 89.433 34.565C89.4278 30.9594 85.3207 30.4282 81.7001 29.9624ZM80.3242 18.0454C84.0671 18.0454 84.5847 19.6215 84.5847 21.3186C84.5847 23.0811 84.0775 24.9015 80.3242 24.9015C77.3122 24.9015 76.0273 23.8616 76.0273 21.4193C76.0325 19.6694 76.5527 18.0454 80.3242 18.0454Z" fill="white"/>
<path d="M106.576 17.1566C105.51 15.6761 103.661 14.956 100.924 14.956C98.0632 14.956 96.1618 15.7516 95.2827 17.3253L95.15 17.5418V8.59082H91.6179V32.3971H95.15L95.2203 22.7462C95.2203 19.5158 95.9381 17.8767 99.8657 17.8767C103.661 17.8767 104.303 19.3874 104.303 22.7462V32.3971H107.895V23.0811C107.895 20.246 107.484 18.418 106.576 17.1566Z" fill="white"/>
<path d="M107.895 32.3971H104.313V22.7462C104.313 19.3773 103.671 17.8767 99.8761 17.8767C95.9485 17.8767 95.2307 19.5158 95.2307 22.7462L95.15 32.3971H91.6179V8.59082H95.15V17.5418L95.2723 17.3227C96.1514 15.7491 98.0502 14.9534 100.914 14.9534C103.65 14.9534 105.499 15.6735 106.566 17.154C107.474 18.413 107.879 20.2434 107.879 23.0811L107.895 32.3971Z" fill="white"/>
<path d="M119.99 17.9776V15.1929H115.232V10.8596H111.726V15.1752L109.175 15.9306V17.9877H111.726V27.4951C111.726 29.177 112.155 30.3856 113.027 31.1913C114.254 32.3092 116.463 32.7423 119.979 32.5484V29.7511C117.727 29.8442 116.494 29.6353 115.867 29.0562C115.495 28.7112 115.329 28.2253 115.329 27.485V17.9776H119.99Z" fill="white"/>
<path d="M119.99 29.7511V32.5383C116.473 32.7322 114.267 32.2991 113.037 31.1812C112.155 30.3755 111.737 29.1669 111.737 27.485V17.9776H109.185V15.9205L111.737 15.1651V10.8596H115.243V15.1928H120V17.9776H115.349V27.485C115.349 28.2253 115.516 28.7112 115.888 29.0561C116.504 29.6277 117.737 29.8442 119.99 29.7511Z" fill="white"/>
<path d="M72.0869 8.96357C72.0869 9.33118 72.0869 9.57541 71.897 9.79195C71.7072 10.0085 71.3768 10.0437 71.0465 10.0437H68.5573V12.3803C68.5573 13.2288 68.3232 13.4605 67.4597 13.4605H67.4415C67.0591 13.4605 66.7834 13.4605 66.5572 13.2464C66.3309 13.0324 66.3257 12.7429 66.3257 12.3803V10.0437H63.9145C63.038 10.0437 62.7961 9.81209 62.7961 8.96357C62.7961 8.11506 63.0276 7.88342 63.9145 7.88342H66.3257V5.5116C66.3257 5.16413 66.3257 4.88717 66.565 4.67063C66.8042 4.4541 67.0617 4.46669 67.4415 4.46669C68.3284 4.46669 68.5573 4.68826 68.5573 5.54684V7.88342H70.9607C71.858 7.88342 72.0869 8.10499 72.0869 8.96357Z" fill="white"/>
</svg>
