<svg width="122" height="41" viewBox="0 0 122 41" fill="none" xmlns="http://www.w3.org/2000/svg">
<g clip-path="url(#clip0)">
<path d="M13.937 8.88773V18.0642L13.8153 17.8795C13.2203 16.9769 11.6335 15.4631 7.68252 15.4631C2.58376 15.4631 0 18.5349 0 24.5953C0 27.3134 0.547436 29.4671 1.62643 30.9913C2.91169 32.812 4.96125 33.7249 7.70897 33.7249C10.3536 33.7249 13.5535 32.9993 14.6193 30.9626L14.6907 30.8248L15.5898 33.4804H17.5362V8.88773H13.937ZM8.78532 30.778C4.353 30.778 3.74209 27.8076 3.74209 24.5953C3.74209 20.9227 4.60686 18.4803 8.82233 18.4803C13.096 18.4803 13.9713 20.9227 13.9713 24.5953C13.9687 28.307 13.0907 30.778 8.78532 30.778Z" fill="black"/>
<path d="M23.1506 8.43253C21.2016 8.43253 20.4082 9.07238 20.4082 10.6408C20.4082 12.2092 21.2016 12.8153 23.1506 12.8153C25.023 12.8153 25.7952 12.1858 25.7952 10.6408C25.7952 9.09579 25.023 8.43253 23.1506 8.43253ZM21.2994 15.7154V33.4804H24.9357V15.7076L21.2994 15.7154Z" fill="black"/>
<path d="M20.4082 10.6408C20.4082 9.08018 21.2016 8.43253 23.1506 8.43253C25.023 8.43253 25.7952 9.07238 25.7952 10.6408C25.7952 12.2092 25.0309 12.8153 23.1506 12.8153C21.2016 12.8153 20.4082 12.1858 20.4082 10.6408Z" fill="black"/>
<path d="M36.4133 15.4631C30.976 15.4631 28.5377 17.4503 28.5139 21.9058L32.0788 21.872C32.1 19.3386 33.372 18.3034 36.4477 18.3034C39.9623 18.3034 41.1286 19.3126 41.2423 22.4651V22.5275L35.4586 23.0763C30.1218 23.6173 27.9453 25.1285 27.9453 28.294C27.9453 31.6909 30.5529 33.7171 34.9191 33.7171C38.5924 33.7171 41.1259 32.2579 42.0092 30.8118L42.0886 30.6843L42.8978 33.4804H44.8442V23.3702C44.8442 18.241 43.5008 15.4631 36.4133 15.4631ZM41.2423 25.8516C41.2423 29.1679 39.3911 30.9184 35.8791 30.9184C33.2001 30.9184 31.7244 29.9768 31.7244 28.2654C31.7244 26.8062 32.8854 26.1351 36.0139 25.7892L41.2423 25.2196V25.8516Z" fill="black"/>
<path d="M56.3455 23.1179L56.081 23.0659C53.172 22.4963 51.2441 22.1191 51.2441 20.5377C51.2441 18.9563 52.5664 18.2332 55.3987 18.2332C58.4241 18.2332 59.8496 19.3126 60.0135 21.7316H63.4383C63.4581 20.665 63.2159 19.6094 62.7322 18.6546C60.5543 17.9257 58.5069 16.8636 56.6655 15.5073C56.2926 15.4787 55.9065 15.4657 55.5045 15.4657C50.3397 15.4657 47.6078 17.328 47.6078 20.855C47.6078 24.1297 51.1145 25.0583 55.0126 25.797C57.9613 26.3588 60.3018 26.801 60.3018 28.5541C60.3018 29.9742 58.5722 30.895 55.8959 30.895C52.5796 30.895 50.8712 29.6699 50.8527 27.2536H47.2534C47.2799 31.6129 50.1307 33.7327 55.9673 33.7327C60.7276 33.7327 63.9011 31.5817 63.9011 28.3798C63.9011 24.5667 60.3996 23.8956 56.3455 23.1179Z" fill="black"/>
<path d="M56.3455 23.1179L56.081 23.0659C53.172 22.4963 51.2441 22.1191 51.2441 20.5377C51.2441 18.9563 52.5664 18.2332 55.3987 18.2332C58.4241 18.2332 59.8496 19.3126 60.0135 21.7316H63.4383C63.4581 20.665 63.2159 19.6094 62.7322 18.6546C60.5543 17.9257 58.5069 16.8636 56.6655 15.5073C56.2926 15.4787 55.9065 15.4657 55.5045 15.4657C50.3397 15.4657 47.6078 17.328 47.6078 20.855C47.6078 24.1297 51.1145 25.0583 55.0126 25.797C57.9613 26.3588 60.3018 26.801 60.3018 28.5541C60.3018 29.9742 58.5722 30.895 55.8959 30.895C52.5796 30.895 50.8712 29.6699 50.8527 27.2536H47.2534C47.2799 31.6129 50.1307 33.7327 55.9673 33.7327C60.7276 33.7327 63.9011 31.5817 63.9011 28.3798C63.9011 24.5667 60.3996 23.8956 56.3455 23.1179Z" fill="black"/>
<path d="M85.3462 8.80708C79.8402 2.93136 74.7943 0.187269 69.0661 0.0130005H68.9947C68.8255 0.0130005 68.6562 0.0130005 68.487 0.0130005H68.3283C61.8649 0.06242 55.9278 4.68184 55.6792 4.88212C55.5147 5.01181 55.4094 5.20045 55.3863 5.40654C55.3633 5.61263 55.4244 5.81929 55.5562 5.98106C55.6881 6.14283 55.8799 6.24645 56.0894 6.26913C56.299 6.29182 56.5091 6.2317 56.6736 6.10201C58.1279 5.02105 59.6942 4.09427 61.3466 3.33711C59.9157 5.01648 59.1372 7.14083 59.1498 9.33188C59.1624 11.5229 59.9652 13.6385 61.4153 15.3018C58.7919 14.0403 56.2002 12.0402 53.4816 9.22584L55.0524 7.66523C55.1257 7.59196 55.1836 7.50521 55.2228 7.40994C55.262 7.31467 55.2817 7.21275 55.2809 7.10998C55.28 7.00721 55.2586 6.9056 55.2178 6.81098C55.177 6.71635 55.1177 6.63056 55.0432 6.55849C54.9687 6.48642 54.8805 6.42949 54.7836 6.39094C54.6868 6.35239 54.5831 6.33298 54.4786 6.33383C54.3742 6.33467 54.2709 6.35575 54.1747 6.39586C54.0784 6.43597 53.9912 6.49433 53.9179 6.56759L51.8023 8.67182C51.6591 8.81459 51.5773 9.00609 51.5738 9.20659C51.5704 9.40709 51.6456 9.60121 51.7837 9.74865C54.3675 12.5109 56.8561 14.5788 59.3578 16.0145C59.976 16.37 60.6124 16.6939 61.2646 16.9847C63.0014 17.7639 64.8558 18.2594 66.7547 18.4517C67.1884 18.4985 67.6248 18.5297 68.077 18.5427H68.1458C68.2886 18.5427 68.4288 18.5427 68.5689 18.5427H68.8122C69.3426 18.5375 69.8724 18.5036 70.399 18.4413C76.2171 17.7572 81.2259 13.8583 81.456 13.6762C81.5377 13.612 81.6057 13.5325 81.656 13.4424C81.7064 13.3523 81.7382 13.2532 81.7495 13.151C81.7608 13.0487 81.7514 12.9453 81.7219 12.8466C81.6924 12.7479 81.6434 12.6559 81.5776 12.576C81.5124 12.496 81.4317 12.4294 81.3403 12.3801C81.2489 12.3308 81.1485 12.2997 81.0448 12.2886C80.9412 12.2775 80.8363 12.2866 80.7363 12.3154C80.6362 12.3442 80.5429 12.3921 80.4616 12.4563C79.0049 13.5351 77.4379 14.4618 75.786 15.2212C77.2176 13.5425 77.997 11.4185 77.9854 9.2274C77.9738 7.03634 77.1719 4.92045 75.7225 3.25648C78.3407 4.52058 80.9324 6.51557 83.6563 9.33249L82.0881 10.8931C82.0141 10.9656 81.9554 11.0517 81.9154 11.1466C81.8753 11.2414 81.8547 11.3431 81.8547 11.4458C81.8547 11.5485 81.8753 11.6502 81.9154 11.7451C81.9554 11.8399 82.0141 11.926 82.0881 11.9985C82.2385 12.1416 82.4394 12.2218 82.6487 12.2222C82.7537 12.2218 82.8575 12.2009 82.9542 12.1607C83.0509 12.1205 83.1385 12.0619 83.212 11.9881L85.3277 9.8839C85.4708 9.74114 85.5526 9.54963 85.5561 9.34913C85.5595 9.14863 85.4844 8.95453 85.3462 8.80708ZM76.4101 9.27266C76.4075 11.3033 75.5912 13.251 74.1382 14.6937C72.6853 16.1363 70.7128 16.9576 68.6483 16.9795H68.5716H68.2542H68.1828C66.1551 16.8672 64.2508 15.9851 62.8712 14.5192C61.4916 13.0533 60.7444 11.118 60.7869 9.1209C60.8294 7.12383 61.6583 5.22096 63.0991 3.81312C64.5399 2.40529 66.48 1.6024 68.5107 1.57362H68.5848C68.6932 1.57362 68.799 1.57362 68.9021 1.57362H68.9762C70.9815 1.67809 72.8698 2.53449 74.2526 3.96661C75.6354 5.39874 76.4075 7.29765 76.4101 9.27266Z" fill="#8EC3FF"/>
<path d="M68.8148 19.5831H68.5715C68.3969 19.5831 68.2409 19.5831 68.0981 19.5831H68.0452C67.6168 19.5831 67.191 19.5415 66.7705 19.4999V33.4804H70.4095V19.4869C69.88 19.5465 69.3477 19.5786 68.8148 19.5831Z" fill="black"/>
<path d="M68.8148 19.5831H68.5715C68.3969 19.5831 68.2409 19.5831 68.0981 19.5831H68.0452C67.6168 19.5831 67.191 19.5415 66.7705 19.4999V33.4804H70.4095V19.4869C69.88 19.5465 69.3477 19.5786 68.8148 19.5831Z" fill="black"/>
<path d="M83.0691 30.9652L82.4477 30.882L81.8791 30.8092C78.4702 30.3592 76.9099 30.1667 76.9099 29.3188C76.9099 28.4136 78.0709 28.3798 81.9161 28.2784C87.4539 28.1301 89.8155 26.3822 89.8155 22.4339C89.8155 20.2958 89.1834 18.9563 87.8241 18.2254L87.684 18.15L90.3497 17.3853V15.7154H82.4159C81.8632 15.7154 81.0936 15.7154 80.2606 15.7883C78.4353 16.9477 76.4759 17.889 74.424 18.5922C73.8232 19.594 73.525 20.7434 73.5645 21.9059C73.5645 24.174 74.424 25.667 76.2673 26.6059L76.4286 26.6866L76.2514 26.7256C74.0908 27.2094 73.2101 28.0261 73.2101 29.5295C73.2101 32.271 75.5427 32.6975 82.289 33.5221C85.727 33.9512 87.1127 34.2868 87.1127 35.8942C87.1127 37.7695 84.3306 38.1623 81.9981 38.1623C77.4785 38.1623 76.9522 36.7265 76.7803 34.8408H72.9219C72.9377 37.8996 74.0167 41.0052 81.6755 41.0052C85.1293 41.0052 90.9315 40.3185 90.9315 35.7199C90.9262 31.9952 86.7504 31.4464 83.0691 30.9652ZM81.6702 18.6546C85.4757 18.6546 86.002 20.2828 86.002 22.0359C86.002 23.8566 85.4863 25.7372 81.6702 25.7372C78.6077 25.7372 77.3013 24.663 77.3013 22.14C77.3066 20.3322 77.8355 18.6546 81.6702 18.6546Z" fill="black"/>
<path d="M108.362 17.7364C107.278 16.207 105.397 15.4631 102.615 15.4631C99.7061 15.4631 97.7729 16.285 96.8791 17.9107L96.7442 18.1344V8.88773H93.1528V33.4804H96.7442L96.8156 23.5107C96.8156 20.1736 97.5455 18.4803 101.539 18.4803C105.397 18.4803 106.05 20.0409 106.05 23.5107V33.4804H109.703V23.8566C109.703 20.9279 109.285 19.0395 108.362 17.7364Z" fill="black"/>
<path d="M109.703 33.4804H106.061V23.5107C106.061 20.0305 105.408 18.4803 101.549 18.4803C97.5561 18.4803 96.8262 20.1736 96.8262 23.5107L96.7442 33.4804H93.1528V8.88773H96.7442V18.1344L96.8685 17.9081C97.7623 16.2824 99.6929 15.4605 102.605 15.4605C105.387 15.4605 107.267 16.2044 108.351 17.7338C109.274 19.0343 109.687 20.9253 109.687 23.8566L109.703 33.4804Z" fill="black"/>
<path d="M122 18.5843V15.7076H117.163V11.2312H113.598V15.6894L111.003 16.4697V18.5947H113.598V28.4162C113.598 30.1537 114.034 31.4022 114.92 32.2345C116.168 33.3894 118.414 33.8368 121.989 33.6365V30.7467C119.699 30.843 118.445 30.6271 117.808 30.0289C117.43 29.6725 117.261 29.1705 117.261 28.4058V18.5843H122Z" fill="black"/>
<path d="M122 30.7467V33.6261C118.424 33.8264 116.182 33.379 114.931 32.2241C114.034 31.3918 113.608 30.1433 113.608 28.4058V18.5843H111.014V16.4593L113.608 15.679V11.2312H117.173V15.7076H122.01V18.5843H117.282V28.4058C117.282 29.1705 117.451 29.6725 117.829 30.0289C118.456 30.6193 119.71 30.843 122 30.7467Z" fill="black"/>
<path d="M73.2946 9.27265C73.2946 9.6524 73.2946 9.9047 73.1016 10.1284C72.9085 10.3521 72.5726 10.3885 72.2368 10.3885H69.7059V12.8022C69.7059 13.6788 69.4679 13.9181 68.5899 13.9181H68.5714C68.1826 13.9181 67.9023 13.9181 67.6722 13.697C67.4421 13.4759 67.4369 13.1768 67.4369 12.8022V10.3885H64.9853C64.0941 10.3885 63.8481 10.1492 63.8481 9.27265C63.8481 8.3961 64.0835 8.15681 64.9853 8.15681H67.4369V5.70664C67.4369 5.3477 67.4368 5.06159 67.6801 4.8379C67.9235 4.61421 68.1853 4.62722 68.5714 4.62722C69.4732 4.62722 69.7059 4.8561 69.7059 5.74305V8.15681H72.1495C73.0619 8.15681 73.2946 8.3857 73.2946 9.27265Z" fill="black"/>
</g>
<defs>
<clipPath id="clip0">
<rect width="122" height="41" fill="white"/>
</clipPath>
</defs>
</svg>
