<svg width="24" height="24" viewBox="0 0 24 24" fill="none" xmlns="http://www.w3.org/2000/svg">
<path fill-rule="evenodd" clip-rule="evenodd" d="M9.11998 17.28C11.1657 17.28 13.0464 16.56 14.5277 15.3677L21.8793 22.7568C22.2528 23.1341 22.8595 23.136 23.2368 22.7606C23.6141 22.3853 23.6141 21.7786 23.2406 21.4032L15.8793 14.0045C17.0534 12.5309 17.76 10.6666 17.76 8.64C17.76 3.87552 13.8845 0 9.11998 0C4.3555 0 0.47998 3.87552 0.47998 8.64C0.47998 13.4045 4.3555 17.28 9.11998 17.28ZM9.11998 1.92C12.8246 1.92 15.84 4.93344 15.84 8.64C15.84 12.3446 12.8246 15.36 9.11998 15.36C5.41342 15.36 2.39998 12.3446 2.39998 8.64C2.39998 4.93344 5.41342 1.92 9.11998 1.92Z" fill="#0067C5"/>
</svg>
